<?xml version="1.0" encoding="UTF-8"?>
<svg id="Layer_2" data-name="Layer 2" xmlns="http://www.w3.org/2000/svg" viewBox="0 0 386.64 123.4">
  <defs>
    <style>
      .cls-1 {
        fill: #171c20;
      }

      .cls-2 {
        fill: #ef4136;
      }
    </style>
  </defs>
  <g id="Layer_1-2" data-name="Layer 1">
    <g>
      <path class="cls-1" d="M135.57,30.21h15.88v8.78h1.03c.77-1.55,1.81-2.97,3.1-4.26s2.73-2.41,4.32-3.37c1.59-.96,3.31-1.73,5.16-2.32,1.85-.59,3.68-.88,5.49-.88,2.24,0,4.15,.24,5.74,.72s2.95,1.1,4.07,1.86l-4.52,15.1c-1.03-.52-2.17-.92-3.42-1.23-1.25-.3-2.77-.45-4.58-.45-2.32,0-4.43,.46-6.33,1.36-1.89,.91-3.51,2.18-4.84,3.83-1.34,1.65-2.37,3.57-3.1,5.78-.73,2.21-1.1,4.61-1.1,7.2v31.14h-16.91V30.21Z"/>
      <path class="cls-1" d="M231.35,85.84h-1.03c-1.55,2.67-3.96,4.95-7.23,6.84-3.27,1.89-7.32,2.84-12.13,2.84-4.05,0-7.9-.84-11.55-2.52s-6.89-4-9.68-6.97c-2.8-2.97-5.01-6.52-6.65-10.65-1.64-4.13-2.45-8.65-2.45-13.55s.82-9.42,2.45-13.55c1.63-4.13,3.85-7.68,6.65-10.65,2.79-2.97,6.02-5.29,9.68-6.97,3.66-1.68,7.51-2.52,11.55-2.52,4.82,0,8.86,.95,12.13,2.84,3.27,1.89,5.68,4.18,7.23,6.84h1.03l-1.03-9.04V1.03h16.91V93.46h-15.88v-7.62Zm-16.91-5.94c2.24,0,4.37-.41,6.39-1.23,2.02-.82,3.81-2,5.36-3.55,1.55-1.55,2.8-3.44,3.74-5.68,.95-2.24,1.42-4.78,1.42-7.62s-.47-5.38-1.42-7.62c-.95-2.24-2.19-4.13-3.74-5.68-1.55-1.55-3.34-2.73-5.36-3.55-2.02-.82-4.15-1.23-6.39-1.23s-4.37,.43-6.39,1.29c-2.02,.86-3.81,2.06-5.36,3.61s-2.8,3.44-3.74,5.68c-.95,2.24-1.42,4.73-1.42,7.49s.47,5.25,1.42,7.49c.95,2.24,2.19,4.13,3.74,5.68s3.33,2.75,5.36,3.61c2.02,.86,4.15,1.29,6.39,1.29Z"/>
      <path class="cls-1" d="M320.94,78.22c-2.93,5.16-6.86,9.34-11.81,12.52-4.95,3.18-10.99,4.78-18.14,4.78-4.82,0-9.27-.84-13.36-2.52-4.09-1.68-7.64-4.02-10.65-7.04-3.01-3.01-5.36-6.56-7.04-10.65-1.68-4.09-2.52-8.58-2.52-13.49,0-4.56,.82-8.88,2.45-12.97,1.63-4.09,3.92-7.66,6.84-10.71,2.92-3.05,6.39-5.49,10.39-7.29,4-1.81,8.41-2.71,13.23-2.71,5.08,0,9.59,.84,13.55,2.52,3.96,1.68,7.27,4,9.94,6.97s4.69,6.48,6.07,10.52c1.38,4.04,2.07,8.43,2.07,13.17v1.55c-.09,.51-.13,.99-.13,1.42-.09,.43-.13,.9-.13,1.42h-47.63c.34,2.58,1.05,4.8,2.13,6.65,1.08,1.85,2.41,3.4,4,4.65,1.59,1.25,3.33,2.15,5.23,2.71,1.89,.56,3.83,.84,5.81,.84,3.87,0,7.08-.88,9.62-2.65,2.54-1.76,4.54-3.98,6-6.65l14.07,6.97Zm-15.36-24.53c-.09-1.12-.45-2.37-1.1-3.74-.64-1.37-1.59-2.67-2.84-3.87-1.25-1.2-2.8-2.19-4.65-2.97-1.85-.77-4.07-1.16-6.65-1.16-3.61,0-6.8,1.03-9.55,3.1-2.76,2.06-4.69,4.95-5.81,8.65h30.59Z"/>
      <path class="cls-1" d="M323.65,106.62c.69,.43,1.36,.73,2,.9,.64,.17,1.44,.26,2.39,.26,3.87,0,5.81-2.57,5.81-7.69V30.21h16.91V100.5c0,4.16-.56,7.7-1.68,10.61-1.12,2.91-2.63,5.27-4.52,7.1-1.89,1.82-4.09,3.14-6.58,3.97-2.5,.82-5.16,1.24-8,1.24-2.15,0-4.09-.15-5.81-.45-1.72-.3-3.31-.75-4.78-1.36l4.26-14.97Zm18.59-84.94c-1.46,0-2.86-.28-4.2-.84-1.34-.56-2.5-1.33-3.49-2.32-.99-.99-1.76-2.13-2.32-3.42-.56-1.29-.84-2.71-.84-4.26s.28-2.97,.84-4.26c.56-1.29,1.33-2.43,2.32-3.42,.99-.99,2.15-1.76,3.49-2.32C339.37,.28,340.77,0,342.24,0c3.01,0,5.59,1.05,7.74,3.16,2.15,2.11,3.23,4.67,3.23,7.68s-1.08,5.57-3.23,7.68c-2.15,2.11-4.73,3.16-7.74,3.16Z"/>
      <path class="cls-1" d="M375.67,21.69c-1.46,0-2.86-.28-4.2-.84-1.34-.56-2.5-1.33-3.49-2.32-.99-.99-1.76-2.13-2.32-3.42-.56-1.29-.84-2.71-.84-4.26s.28-2.97,.84-4.26c.56-1.29,1.33-2.43,2.32-3.42,.99-.99,2.15-1.76,3.49-2.32C372.81,.28,374.2,0,375.67,0c3.01,0,5.59,1.05,7.74,3.16,2.15,2.11,3.23,4.67,3.23,7.68s-1.08,5.57-3.23,7.68c-2.15,2.11-4.73,3.16-7.74,3.16Zm-8.39,71.77V30.21h16.91v63.25h-16.91Z"/>
      <g>
        <path class="cls-2" d="M107.36,20.85c1.33,.56,2.73,.84,4.2,.84,3.01,0,5.59-1.05,7.74-3.16,2.15-2.11,3.23-4.67,3.23-7.68s-1.08-5.57-3.23-7.68c-2.15-2.11-4.73-3.16-7.74-3.16-1.46,0-2.86,.28-4.2,.84-1.34,.56-2.5,1.34-3.49,2.32-.99,.99-1.76,2.13-2.32,3.42-.56,1.29-.84,2.71-.84,4.26s.28,2.97,.84,4.26c.56,1.29,1.33,2.43,2.32,3.42,.99,.99,2.15,1.76,3.49,2.32Z"/>
        <rect class="cls-1" x="103.16" y="30.21" width="16.91" height="63.25"/>
      </g>
      <g>
        <path class="cls-1" d="M46.39,0C20.81,0,0,20.81,0,46.4c0,.28,0,.55,.02,.83H18.01c-.02-.28-.02-.55-.02-.83,0-15.66,12.75-28.4,28.4-28.4,10.76,0,20.15,6.03,24.96,14.89l16.71-6.82C80.53,10.65,64.68,0,46.39,0Z"/>
        <polygon class="cls-2" points="89.48 47.24 89.48 93.6 74.46 93.6 74.46 72.85 53.71 93.6 32.45 93.6 63.77 62.27 43.72 62.27 43.72 47.24 89.48 47.24"/>
      </g>
    </g>
  </g>
</svg>