<?xml version="1.0" encoding="UTF-8"?>
<svg id="Layer_2" data-name="Layer 2" xmlns="http://www.w3.org/2000/svg" viewBox="0 0 374.91 119.66">
  <defs>
    <style>
      .cls-1 {
        fill: #fff;
      }

      .cls-2 {
        fill: #ef4136;
      }
    </style>
  </defs>
  <g id="Layer_1-2" data-name="Layer 1">
    <g>
      <path class="cls-1" d="M131.46,29.29h15.4v8.51h1c.75-1.5,1.75-2.88,3-4.13s2.65-2.34,4.19-3.27c1.54-.93,3.21-1.68,5.01-2.25,1.79-.57,3.57-.86,5.32-.86,2.17,0,4.02,.23,5.57,.7s2.86,1.07,3.94,1.81l-4.38,14.64c-1-.5-2.11-.9-3.32-1.19-1.21-.29-2.69-.44-4.44-.44-2.25,0-4.3,.44-6.13,1.32-1.84,.88-3.4,2.12-4.69,3.71-1.29,1.6-2.3,3.46-3,5.6-.71,2.14-1.06,4.47-1.06,6.98v30.2h-16.4V29.29Z"/>
      <path class="cls-1" d="M224.34,83.24h-1c-1.5,2.59-3.84,4.8-7.01,6.63-3.17,1.83-7.09,2.75-11.77,2.75-3.92,0-7.66-.81-11.2-2.44s-6.68-3.88-9.39-6.76c-2.71-2.88-4.86-6.32-6.45-10.33-1.59-4.01-2.38-8.39-2.38-13.14s.79-9.14,2.38-13.14c1.58-4,3.73-7.45,6.45-10.33,2.71-2.88,5.84-5.13,9.39-6.76,3.55-1.63,7.28-2.44,11.2-2.44,4.67,0,8.59,.92,11.77,2.75,3.17,1.84,5.51,4.05,7.01,6.63h1l-1-8.76V1h16.4V90.62h-15.4v-7.38Zm-16.4-5.76c2.17,0,4.23-.4,6.2-1.19,1.96-.79,3.69-1.94,5.19-3.44,1.5-1.5,2.71-3.34,3.63-5.51,.92-2.17,1.38-4.63,1.38-7.38s-.46-5.21-1.38-7.38c-.92-2.17-2.13-4.01-3.63-5.51-1.5-1.5-3.23-2.65-5.19-3.44-1.96-.79-4.03-1.19-6.2-1.19s-4.24,.42-6.2,1.25c-1.96,.83-3.69,2-5.19,3.5s-2.71,3.34-3.63,5.51c-.92,2.17-1.38,4.59-1.38,7.26s.46,5.09,1.38,7.26c.92,2.17,2.13,4,3.63,5.51s3.23,2.67,5.19,3.5c1.96,.83,4.03,1.25,6.2,1.25Z"/>
      <path class="cls-1" d="M311.2,75.85c-2.84,5.01-6.66,9.06-11.45,12.14-4.8,3.09-10.66,4.63-17.59,4.63-4.67,0-8.99-.81-12.95-2.44-3.96-1.63-7.41-3.9-10.33-6.82-2.92-2.92-5.2-6.36-6.82-10.33-1.63-3.96-2.44-8.32-2.44-13.08,0-4.42,.79-8.61,2.38-12.58,1.58-3.96,3.8-7.43,6.63-10.39,2.84-2.96,6.2-5.32,10.08-7.07,3.88-1.75,8.16-2.63,12.83-2.63,4.92,0,9.3,.81,13.14,2.44,3.84,1.63,7.05,3.88,9.64,6.76s4.55,6.28,5.88,10.2c1.33,3.92,2,8.18,2,12.77v1.5c-.08,.5-.13,.96-.13,1.38-.08,.42-.13,.88-.13,1.38h-46.19c.33,2.5,1.02,4.65,2.07,6.45,1.04,1.8,2.34,3.3,3.88,4.51,1.54,1.21,3.23,2.09,5.07,2.63,1.83,.54,3.71,.81,5.63,.81,3.75,0,6.86-.85,9.32-2.57,2.46-1.71,4.4-3.86,5.82-6.45l13.64,6.76Zm-14.9-23.78c-.08-1.08-.44-2.29-1.06-3.63-.63-1.33-1.54-2.58-2.75-3.75-1.21-1.17-2.71-2.13-4.51-2.88-1.8-.75-3.94-1.13-6.45-1.13-3.51,0-6.59,1-9.26,3-2.67,2-4.55,4.8-5.63,8.39h29.66Z"/>
      <path class="cls-1" d="M313.83,103.39c.67,.42,1.31,.71,1.94,.88,.63,.17,1.4,.25,2.31,.25,3.75,0,5.63-2.49,5.63-7.46V29.29h16.4V97.45c0,4.04-.54,7.47-1.63,10.29-1.09,2.82-2.55,5.11-4.38,6.88-1.84,1.77-3.96,3.05-6.38,3.85-2.42,.8-5.01,1.2-7.76,1.2-2.09,0-3.96-.15-5.63-.44-1.67-.29-3.21-.73-4.63-1.31l4.13-14.52Zm18.03-82.36c-1.42,0-2.78-.27-4.07-.81-1.29-.54-2.42-1.29-3.38-2.25-.96-.96-1.71-2.07-2.25-3.32-.54-1.25-.81-2.63-.81-4.13s.27-2.88,.81-4.13c.54-1.25,1.29-2.36,2.25-3.32,.96-.96,2.08-1.71,3.38-2.25C329.08,.27,330.44,0,331.86,0c2.92,0,5.42,1.02,7.51,3.07,2.08,2.05,3.13,4.53,3.13,7.45s-1.04,5.4-3.13,7.45c-2.09,2.05-4.59,3.07-7.51,3.07Z"/>
      <path class="cls-1" d="M364.27,21.03c-1.42,0-2.78-.27-4.07-.81-1.29-.54-2.42-1.29-3.38-2.25-.96-.96-1.71-2.07-2.25-3.32-.54-1.25-.81-2.63-.81-4.13s.27-2.88,.81-4.13c.54-1.25,1.29-2.36,2.25-3.32,.96-.96,2.08-1.71,3.38-2.25C361.5,.27,362.85,0,364.27,0c2.92,0,5.42,1.02,7.51,3.07,2.08,2.05,3.13,4.53,3.13,7.45s-1.04,5.4-3.13,7.45c-2.09,2.05-4.59,3.07-7.51,3.07Zm-8.14,69.59V29.29h16.4v61.33h-16.4Z"/>
      <g>
        <path class="cls-2" d="M104.1,20.22c1.29,.54,2.65,.81,4.07,.81,2.92,0,5.42-1.02,7.51-3.07,2.08-2.04,3.13-4.53,3.13-7.45s-1.04-5.4-3.13-7.45c-2.09-2.04-4.59-3.07-7.51-3.07-1.42,0-2.78,.27-4.07,.81-1.29,.54-2.42,1.29-3.38,2.25-.96,.96-1.71,2.07-2.25,3.32-.54,1.25-.81,2.63-.81,4.13s.27,2.88,.81,4.13c.54,1.25,1.29,2.36,2.25,3.32,.96,.96,2.09,1.71,3.38,2.25Z"/>
        <rect class="cls-1" x="100.03" y="29.29" width="16.4" height="61.33"/>
      </g>
      <g>
        <path class="cls-1" d="M44.98,0C20.18,0,0,20.18,0,44.99c0,.27,0,.54,.02,.81H17.46c-.02-.27-.02-.54-.02-.81,0-15.18,12.36-27.54,27.54-27.54,10.44,0,19.54,5.85,24.2,14.43l16.21-6.61C78.08,10.32,62.72,0,44.98,0Z"/>
        <polygon class="cls-2" points="86.77 45.81 86.77 90.76 72.2 90.76 72.2 70.64 52.08 90.76 31.47 90.76 61.84 60.38 42.39 60.38 42.39 45.81 86.77 45.81"/>
      </g>
    </g>
  </g>
</svg>